<?xml version="1.0" encoding="UTF-8"?>
<svg xmlns="http://www.w3.org/2000/svg" viewBox="0 0 710 560">
    <g fill="none" stroke="rgba(0, 255, 65, 0.22)" stroke-miterlimit="10" stroke-width="1">
        <rect x="0.5" y="0.5" width="703" height="479"/>
        <line x1="0" y1="71.76" x2="703" y2="71.76"/>
        <line x1="0" y1="153.8" x2="703" y2="153.8"/>
        <line x1="0" y1="235.83" x2="703" y2="235.83"/>
        <line x1="0" y1="317.87" x2="703" y2="317.87"/>
        <line x1="0" y1="396.71" x2="703" y2="396.71"/>
        <line x1="0" y1="478.75" x2="703" y2="478.75"/>
        
        <line x1="84.06" y1="0" x2="84.06" y2="478.75"/>
        <line x1="178.17" y1="0" x2="178.17" y2="478.75"/>
        <line x1="268.06" y1="0" x2="268.06" y2="478.75"/>
        <line x1="362.17" y1="0" x2="362.17" y2="478.75"/>
        <line x1="456.06" y1="0" x2="456.06" y2="478.75"/>
        <line x1="550.17" y1="0" x2="550.17" y2="478.75"/>
        <line x1="630.17" y1="0" x2="630.17" y2="478.75"/>
        
        <g fill="rgba(0, 255, 65, 0.22)" stroke="none">
            <circle cx="84.65" cy="71.76" r="3"/>
            <circle cx="178.17" cy="71.76" r="3"/>
            <circle cx="268.06" cy="71.76" r="3"/>
            <circle cx="362.17" cy="71.76" r="3"/>
            <circle cx="456.17" cy="71.76" r="3"/>
            <circle cx="550.17" cy="71.76" r="3"/>
            <circle cx="630.17" cy="71.76" r="3"/>
            <circle cx="703.41" cy="71.76" r="3"/>
            
            <circle cx="703.41" cy="153.8" r="3"/>
            <circle cx="630.17" cy="153.8" r="3"/>
            <circle cx="630.17" cy="235.83" r="3"/>
            <circle cx="703.41" cy="235.83" r="3"/>
            <circle cx="703.41" cy="316.27" r="3"/>
            <circle cx="630.17" cy="317.87" r="3"/>
            <circle cx="630.17" cy="396.71" r="3"/>
            <circle cx="703.41" cy="396.71" r="3"/>
        </g>
    </g>
</svg>